<svg width="48" height="37" viewBox="0 0 48 37" fill="none" xmlns="http://www.w3.org/2000/svg">
<path d="M32.9242 14.3203H6.96715C6.4496 14.3203 5.95196 14.5303 5.5837 14.9003L0.577416 19.9203C-0.656739 21.1603 0.219113 23.2903 1.96086 23.2903H6.15101H15.0787H41.0358C41.5533 23.2903 42.051 23.0803 42.4192 22.7103L47.4156 17.6903C48.6497 16.4503 47.7739 14.3203 46.0321 14.3203H41.842H32.9142H32.9242Z" fill="#017AFF"/>
<path d="M15.0785 27.7715H6.96696C6.44941 27.7715 5.95177 27.9815 5.58352 28.3515L0.587181 33.3715C-0.646973 34.6115 0.228879 36.7415 1.97063 36.7415H6.16078H15.0885H23.2001C23.7176 36.7415 24.2153 36.5315 24.5835 36.1615L29.5798 31.1415C30.814 29.9015 29.9382 27.7715 28.1964 27.7715H24.0063H15.0785Z" fill="#017AFF"/>
<path d="M15.0787 9.84109H41.0358C41.5533 9.84109 42.051 9.63109 42.4192 9.26109L47.4156 4.24109C48.6597 2.99109 47.7838 0.871094 46.0421 0.871094H41.8519H32.9242H6.96715C6.4496 0.871094 5.95196 1.08109 5.5837 1.45109L0.577416 6.47109C-0.656738 7.71109 0.219113 9.84109 1.96086 9.84109H6.15101H15.0787Z" fill="#017AFF"/>
</svg>
