<svg viewBox="0 0 24 24" xmlns="http://www.w3.org/2000/svg" fill="#96588A">
  <path d="M12 0C5.373 0 0 5.373 0 12s5.373 12 12 12 12-5.373 12-12S18.627 0 12 0zm5.894 17.553c-.371.371-.856.556-1.455.556-.6 0-1.087-.193-1.46-.58l-1.977-1.977-1.977 1.977c-.373.387-.86.58-1.46.58-.6 0-1.084-.185-1.455-.556-.37-.372-.556-.856-.556-1.455 0-.6.193-1.087.58-1.46l1.977-1.977-1.977-1.977c-.387-.373-.58-.86-.58-1.46 0-.6.185-1.084.556-1.455.372-.37.856-.556 1.455-.556.6 0 1.087.193 1.46.58l1.977 1.977 1.977-1.977c.373-.387.86-.58 1.46-.58.6 0 1.084.185 1.455.556.37.372.556.856.556 1.455 0 .6-.193 1.087-.58 1.46l-1.977 1.977 1.977 1.977c.387.373.58.86.58 1.46 0 .6-.185 1.084-.556 1.455z"/>
</svg>
