<svg xmlns="http://www.w3.org/2000/svg" viewBox="0 0 120 80" fill="none">
  <rect width="120" height="80" fill="#667EEA"/>
  <g transform="translate(15, 38)">
    <path d="M -5 1 Q -6 1 -6 0 Q -6 -3 -4 -4 Q -2.5 -5 0 -5 Q 2.5 -5 4 -4 Q 6 -3 6 0 Q 6 1 5 1 Z" fill="white" opacity="0.9"/>
    <ellipse cx="0" cy="1" rx="6" ry="2" fill="white" opacity="0.85"/>
    <g transform="translate(0, -1)">
      <circle cx="-1" cy="3" r="0.7" fill="#667EEA" opacity="0.8"/>
      <circle cx="1" cy="3" r="0.7" fill="#667EEA" opacity="0.8"/>
      <path d="M -2.5 -3 L -1.5 -3 L -0.5 1 L 2 1" stroke="#667EEA" stroke-width="0.8" fill="none" opacity="0.8" stroke-linecap="round"/>
      <path d="M -1.5 -3 L -1 -1 L 2.5 -1 L 2 1" stroke="#667EEA" stroke-width="0.8" fill="none" opacity="0.8"/>
    </g>
  </g>
  <text x="60" y="42" font-family="Arial" font-size="15" font-weight="bold" fill="white" text-anchor="middle">Nuvemshop</text>
  <text x="60" y="53" font-family="Arial" font-size="8" fill="white" text-anchor="middle" opacity="0.9">Payments</text>
  <g transform="translate(100, 40)">
    <rect x="-12" y="-6" width="24" height="12" rx="2" fill="white" opacity="0.2"/>
    <text x="0" y="1" font-family="Arial" font-size="4" font-weight="bold" fill="white" text-anchor="middle" dominant-baseline="middle">E-COMMERCE</text>
  </g>
</svg>
