<svg xmlns="http://www.w3.org/2000/svg" viewBox="0 0 120 80" fill="none">
  <rect width="120" height="80" fill="#009B3A"/>
  <g transform="translate(15, 40)">
    <path d="M -3 -6 L -1.5 -5 L 0 -7 L 2 -6 L 3.5 -4 L 4 -1 L 3 3 L 1.5 5 L 0 6 L -2 5 L -3 2 L -4 0 L -3 -4 Z" fill="white" opacity="0.9" stroke="white" stroke-width="0.7"/>
    <path d="M -1.5 -5 L 0 -6 L 1.5 -5 L 2.5 -2 L 2 1 L 0.5 4 L -0.5 4 L -2 1 L -2 -3 Z" fill="#FFD700" opacity="0.7"/>
    <circle cx="0" cy="0" r="3" fill="#FFD700" opacity="0.9"/>
    <text x="0" y="1.5" font-family="Arial" font-size="4" font-weight="bold" fill="white" text-anchor="middle" dominant-baseline="middle">$</text>
  </g>
  <text x="60" y="44" font-family="Arial" font-size="17" font-weight="bold" fill="white" text-anchor="middle">Pag<tspan fill="#FFD700">Brasil</tspan></text>
  <text x="60" y="58" font-family="Arial" font-size="7" fill="white" text-anchor="middle" opacity="0.85">Pagamentos América Latina</text>
  <g transform="translate(100, 40)">
    <rect x="-10" y="-6" width="20" height="12" rx="2" fill="white" opacity="0.2"/>
    <text x="0" y="1" font-family="Arial" font-size="5" font-weight="bold" fill="white" text-anchor="middle" dominant-baseline="middle">LATAM</text>
  </g>
</svg>
