<svg viewBox="0 0 24 24" xmlns="http://www.w3.org/2000/svg" fill="#95BF47">
  <path d="M15.337 23.979l7.216-1.561s-2.604-17.613-2.625-17.73c-.018-.116-.114-.192-.211-.192s-1.929-.136-1.929-.136-1.275-1.274-1.439-1.411c-.045-.037-.075-.057-.121-.074l-.914 21.104h.023zM11.71 11.305s-.81-.424-1.774-.424c-1.447 0-1.504.906-1.504 1.141 0 1.232 3.24 1.715 3.24 4.629 0 2.295-1.44 3.76-3.406 3.76-2.354 0-3.54-1.465-3.54-1.465l.646-2.086s1.245 1.066 2.28 1.066c.675 0 .975-.545.975-.932 0-1.619-2.654-1.694-2.654-4.359-.034-2.237 1.571-4.416 4.827-4.416 1.257 0 1.875.361 1.875.361l-.945 2.715-.02.01zM11.17.83c.136 0 .271.038.405.135-.984.465-2.064 1.639-2.508 3.992-.65 3.447-.65 8.169-.65 8.169s-2.827-.122-3.961-.264c-.114-.014-.207-.101-.223-.215L2.83 5.485c-.016-.114.053-.22.164-.249l8.031-2.082L11.17.83z"/>
</svg>
