<svg width="200" height="200" viewBox="0 0 200 200" fill="none" xmlns="http://www.w3.org/2000/svg">
  <!-- Background Circle with Gradient -->
  <defs>
    <linearGradient id="gradient1" x1="0%" y1="0%" x2="100%" y2="100%">
      <stop offset="0%" style="stop-color:#3B82F6;stop-opacity:1" />
      <stop offset="100%" style="stop-color:#9333EA;stop-opacity:1" />
    </linearGradient>
    <linearGradient id="gradient2" x1="0%" y1="0%" x2="100%" y2="0%">
      <stop offset="0%" style="stop-color:#60A5FA;stop-opacity:1" />
      <stop offset="100%" style="stop-color:#A78BFA;stop-opacity:1" />
    </linearGradient>
  </defs>
  
  <!-- Main Circle -->
  <circle cx="100" cy="100" r="90" fill="url(#gradient1)" opacity="0.1"/>
  <circle cx="100" cy="100" r="80" fill="url(#gradient1)" opacity="0.2"/>
  
  <!-- Letter S with modern style -->
  <path d="M 70 60 Q 50 60 50 80 Q 50 95 70 95 L 130 95 Q 150 95 150 115 Q 150 135 130 135 L 70 135" 
        stroke="url(#gradient2)" 
        stroke-width="16" 
        stroke-linecap="round" 
        fill="none"
        opacity="0.9"/>
  
  <!-- Spark effect -->
  <circle cx="145" cy="65" r="6" fill="#F59E0B" opacity="0.8">
    <animate attributeName="opacity" values="0.3;1;0.3" dur="2s" repeatCount="indefinite"/>
  </circle>
  <circle cx="155" cy="75" r="4" fill="#FBBF24" opacity="0.6">
    <animate attributeName="opacity" values="0.2;0.8;0.2" dur="2s" begin="0.5s" repeatCount="indefinite"/>
  </circle>
  
  <!-- AI Brain dots -->
  <circle cx="75" cy="100" r="3" fill="#3B82F6"/>
  <circle cx="85" cy="90" r="3" fill="#3B82F6"/>
  <circle cx="95" cy="85" r="3" fill="#9333EA"/>
  <circle cx="105" cy="85" r="3" fill="#9333EA"/>
  <circle cx="115" cy="90" r="3" fill="#A78BFA"/>
  <circle cx="125" cy="100" r="3" fill="#A78BFA"/>
</svg>
