<svg xmlns="http://www.w3.org/2000/svg" viewBox="0 0 60 38" width="60" height="38">
  <rect width="60" height="38" rx="4" fill="#fff" stroke="#e0e0e0" stroke-width="1"/>
  <path d="M24.5 26H21l2.1-13h3.4L24.5 26zm-6.9-13L14.3 22l-.4-1.9-1.1-5.7c-.2-1-1-1.4-2-1.4H6l-.1.3s1.7.3 3.6 1.5L13 26h3.5l5.4-13H17.6zm27.9 13h2.8l-2.4-13h-2.6c-.9 0-1.5.5-1.8 1.3L36.4 26h3.5l.7-1.9h4.3l.6 1.9zM42 21.2l1.7-4.7.9 4.7H42zm-5.3-4.2.5-2.9c-.9-.4-2.2-.7-3.5-.7-3 0-5.2 1.6-5.2 3.9 0 1.7 1.5 2.7 2.7 3.2 1.2.6 1.6 1 1.6 1.5 0 .8-1 1.1-1.9 1.1-1.1 0-2.3-.3-3-.7l-.5 2.8c.7.3 2 .6 3.2.6 3.3 0 5.4-1.6 5.4-4.1 0-3.1-4.2-3.3-4.2-4.6 0-.4.4-.9 1.5-.9.9 0 2 .3 2.5.5z" fill="#1a1f71"/>
</svg>
